<svg xmlns="http://www.w3.org/2000/svg" xmlns:xlink="http://www.w3.org/1999/xlink" width="500" zoomAndPan="magnify" viewBox="0 0 375 374.999991" height="500" preserveAspectRatio="xMidYMid meet" version="1.0"><defs><g/><clipPath id="3f822a9eb7"><path d="M 114.96875 165 L 120 165 L 120 199 L 114.96875 199 Z M 114.96875 165 " clip-rule="nonzero"/></clipPath><clipPath id="ce1d6f9e0b"><path d="M 119.929688 166.28125 C 119.929688 165.414062 118.75 165.171875 118.402344 165.96875 C 116.183594 170.894531 114.96875 176.378906 114.96875 182.140625 C 114.96875 187.898438 116.183594 193.382812 118.402344 198.308594 C 118.75 199.105469 119.929688 198.828125 119.929688 197.996094 Z M 119.929688 166.28125 " clip-rule="nonzero"/></clipPath><linearGradient x1="-0.0000189928" gradientTransform="matrix(0.346992, 0, 0, 0.346992, 114.968279, 142.477627)" y1="114.286003" x2="14.299982" gradientUnits="userSpaceOnUse" y2="114.286003" id="93027a723c"><stop stop-opacity="1" stop-color="rgb(34.899902%, 56.498718%, 100%)" offset="0"/><stop stop-opacity="1" stop-color="rgb(35.00061%, 56.565857%, 100%)" offset="0.015625"/><stop stop-opacity="1" stop-color="rgb(35.202026%, 56.70166%, 100%)" offset="0.03125"/><stop stop-opacity="1" stop-color="rgb(35.403442%, 56.835938%, 100%)" offset="0.046875"/><stop stop-opacity="1" stop-color="rgb(35.606384%, 56.970215%, 100%)" offset="0.0625"/><stop stop-opacity="1" stop-color="rgb(35.8078%, 57.104492%, 100%)" offset="0.078125"/><stop stop-opacity="1" stop-color="rgb(36.009216%, 57.240295%, 100%)" offset="0.09375"/><stop stop-opacity="1" stop-color="rgb(36.212158%, 57.374573%, 100%)" offset="0.109375"/><stop stop-opacity="1" stop-color="rgb(36.413574%, 57.50885%, 100%)" offset="0.125"/><stop stop-opacity="1" stop-color="rgb(36.61499%, 57.643127%, 100%)" offset="0.140625"/><stop stop-opacity="1" stop-color="rgb(36.817932%, 57.777405%, 100%)" offset="0.15625"/><stop stop-opacity="1" stop-color="rgb(37.019348%, 57.913208%, 100%)" offset="0.171875"/><stop stop-opacity="1" stop-color="rgb(37.220764%, 58.047485%, 100%)" offset="0.1875"/><stop stop-opacity="1" stop-color="rgb(37.423706%, 58.181763%, 100%)" offset="0.203125"/><stop stop-opacity="1" stop-color="rgb(37.625122%, 58.31604%, 100%)" offset="0.21875"/><stop stop-opacity="1" stop-color="rgb(37.828064%, 58.451843%, 100%)" offset="0.234375"/><stop stop-opacity="1" stop-color="rgb(38.02948%, 58.586121%, 100%)" offset="0.25"/><stop stop-opacity="1" stop-color="rgb(38.230896%, 58.720398%, 100%)" offset="0.265625"/><stop stop-opacity="1" stop-color="rgb(38.433838%, 58.854675%, 100%)" offset="0.28125"/><stop stop-opacity="1" stop-color="rgb(38.635254%, 58.990479%, 100%)" offset="0.296875"/><stop stop-opacity="1" stop-color="rgb(38.83667%, 59.124756%, 100%)" offset="0.3125"/><stop stop-opacity="1" stop-color="rgb(39.039612%, 59.259033%, 100%)" offset="0.328125"/><stop stop-opacity="1" stop-color="rgb(39.241028%, 59.393311%, 100%)" offset="0.34375"/><stop stop-opacity="1" stop-color="rgb(39.442444%, 59.529114%, 100%)" offset="0.359375"/><stop stop-opacity="1" stop-color="rgb(39.645386%, 59.663391%, 100%)" offset="0.375"/><stop stop-opacity="1" stop-color="rgb(39.846802%, 59.797668%, 100%)" offset="0.390625"/><stop stop-opacity="1" stop-color="rgb(40.048218%, 59.931946%, 100%)" offset="0.40625"/><stop stop-opacity="1" stop-color="rgb(40.25116%, 60.067749%, 100%)" offset="0.421875"/><stop stop-opacity="1" stop-color="rgb(40.452576%, 60.202026%, 100%)" offset="0.4375"/><stop stop-opacity="1" stop-color="rgb(40.655518%, 60.336304%, 100%)" offset="0.453125"/><stop stop-opacity="1" stop-color="rgb(40.856934%, 60.470581%, 100%)" offset="0.46875"/><stop stop-opacity="1" stop-color="rgb(41.05835%, 60.604858%, 100%)" offset="0.484375"/><stop stop-opacity="1" stop-color="rgb(41.261292%, 60.740662%, 100%)" offset="0.5"/><stop stop-opacity="1" stop-color="rgb(41.462708%, 60.874939%, 100%)" offset="0.515625"/><stop stop-opacity="1" stop-color="rgb(41.664124%, 61.009216%, 100%)" offset="0.53125"/><stop stop-opacity="1" stop-color="rgb(41.867065%, 61.143494%, 100%)" offset="0.546875"/><stop stop-opacity="1" stop-color="rgb(42.068481%, 61.279297%, 100%)" offset="0.5625"/><stop stop-opacity="1" stop-color="rgb(42.269897%, 61.413574%, 100%)" offset="0.578125"/><stop stop-opacity="1" stop-color="rgb(42.472839%, 61.547852%, 100%)" offset="0.59375"/><stop stop-opacity="1" stop-color="rgb(42.674255%, 61.682129%, 100%)" offset="0.609375"/><stop stop-opacity="1" stop-color="rgb(42.877197%, 61.817932%, 100%)" offset="0.625"/><stop stop-opacity="1" stop-color="rgb(43.078613%, 61.952209%, 100%)" offset="0.640625"/><stop stop-opacity="1" stop-color="rgb(43.280029%, 62.086487%, 100%)" offset="0.65625"/><stop stop-opacity="1" stop-color="rgb(43.482971%, 62.220764%, 100%)" offset="0.671875"/><stop stop-opacity="1" stop-color="rgb(43.684387%, 62.356567%, 100%)" offset="0.6875"/><stop stop-opacity="1" stop-color="rgb(43.885803%, 62.490845%, 100%)" offset="0.703125"/><stop stop-opacity="1" stop-color="rgb(44.088745%, 62.625122%, 100%)" offset="0.71875"/><stop stop-opacity="1" stop-color="rgb(44.290161%, 62.759399%, 100%)" offset="0.734375"/><stop stop-opacity="1" stop-color="rgb(44.491577%, 62.895203%, 100%)" offset="0.75"/><stop stop-opacity="1" stop-color="rgb(44.694519%, 63.02948%, 100%)" offset="0.765625"/><stop stop-opacity="1" stop-color="rgb(44.895935%, 63.163757%, 100%)" offset="0.78125"/><stop stop-opacity="1" stop-color="rgb(45.097351%, 63.298035%, 100%)" offset="0.796875"/><stop stop-opacity="1" stop-color="rgb(45.300293%, 63.432312%, 100%)" offset="0.8125"/><stop stop-opacity="1" stop-color="rgb(45.501709%, 63.568115%, 100%)" offset="0.828125"/><stop stop-opacity="1" stop-color="rgb(45.704651%, 63.702393%, 100%)" offset="0.84375"/><stop stop-opacity="1" stop-color="rgb(45.906067%, 63.83667%, 100%)" offset="0.859375"/><stop stop-opacity="1" stop-color="rgb(46.107483%, 63.970947%, 100%)" offset="0.875"/><stop stop-opacity="1" stop-color="rgb(46.310425%, 64.10675%, 100%)" offset="0.890625"/><stop stop-opacity="1" stop-color="rgb(46.511841%, 64.241028%, 100%)" offset="0.90625"/><stop stop-opacity="1" stop-color="rgb(46.713257%, 64.375305%, 100%)" offset="0.921875"/><stop stop-opacity="1" stop-color="rgb(46.916199%, 64.509583%, 100%)" offset="0.9375"/><stop stop-opacity="1" stop-color="rgb(47.117615%, 64.645386%, 100%)" offset="0.953125"/><stop stop-opacity="1" stop-color="rgb(47.319031%, 64.779663%, 100%)" offset="0.96875"/><stop stop-opacity="1" stop-color="rgb(47.610474%, 64.971924%, 100%)" offset="1"/></linearGradient><clipPath id="4ee76d9ad5"><path d="M 122 157 L 133 157 L 133 207 L 122 207 Z M 122 157 " clip-rule="nonzero"/></clipPath><clipPath id="59adeccc82"><path d="M 132.316406 158.09375 C 132.316406 157.328125 131.382812 157.015625 130.894531 157.605469 C 125.585938 164.339844 122.394531 172.875 122.394531 182.140625 C 122.394531 191.402344 125.550781 199.90625 130.894531 206.671875 C 131.347656 207.261719 132.316406 206.949219 132.316406 206.183594 Z M 132.316406 158.09375 " clip-rule="nonzero"/></clipPath><linearGradient x1="21.399984" gradientTransform="matrix(0.346992, 0, 0, 0.346992, 114.968279, 142.477627)" y1="114.286003" x2="49.999983" gradientUnits="userSpaceOnUse" y2="114.286003" id="47925fc252"><stop stop-opacity="1" stop-color="rgb(47.799683%, 65.098572%, 100%)" offset="0"/><stop stop-opacity="1" stop-color="rgb(47.897339%, 65.164185%, 100%)" offset="0.015625"/><stop stop-opacity="1" stop-color="rgb(48.100281%, 65.301514%, 100%)" offset="0.03125"/><stop stop-opacity="1" stop-color="rgb(48.309326%, 65.441895%, 100%)" offset="0.046875"/><stop stop-opacity="1" stop-color="rgb(48.519897%, 65.582275%, 100%)" offset="0.0625"/><stop stop-opacity="1" stop-color="rgb(48.728943%, 65.724182%, 100%)" offset="0.078125"/><stop stop-opacity="1" stop-color="rgb(48.939514%, 65.864563%, 100%)" offset="0.09375"/><stop stop-opacity="1" stop-color="rgb(49.14856%, 66.00647%, 100%)" offset="0.109375"/><stop stop-opacity="1" stop-color="rgb(49.359131%, 66.146851%, 100%)" offset="0.125"/><stop stop-opacity="1" stop-color="rgb(49.568176%, 66.287231%, 100%)" offset="0.140625"/><stop stop-opacity="1" stop-color="rgb(49.778748%, 66.429138%, 100%)" offset="0.15625"/><stop stop-opacity="1" stop-color="rgb(49.987793%, 66.569519%, 100%)" offset="0.171875"/><stop stop-opacity="1" stop-color="rgb(50.198364%, 66.7099%, 100%)" offset="0.1875"/><stop stop-opacity="1" stop-color="rgb(50.40741%, 66.851807%, 100%)" offset="0.203125"/><stop stop-opacity="1" stop-color="rgb(50.617981%, 66.992188%, 100%)" offset="0.21875"/><stop stop-opacity="1" stop-color="rgb(50.827026%, 67.132568%, 100%)" offset="0.234375"/><stop stop-opacity="1" stop-color="rgb(51.037598%, 67.274475%, 100%)" offset="0.25"/><stop stop-opacity="1" stop-color="rgb(51.246643%, 67.414856%, 100%)" offset="0.265625"/><stop stop-opacity="1" stop-color="rgb(51.457214%, 67.555237%, 100%)" offset="0.28125"/><stop stop-opacity="1" stop-color="rgb(51.66626%, 67.697144%, 100%)" offset="0.296875"/><stop stop-opacity="1" stop-color="rgb(51.876831%, 67.837524%, 100%)" offset="0.3125"/><stop stop-opacity="1" stop-color="rgb(52.085876%, 67.977905%, 100%)" offset="0.328125"/><stop stop-opacity="1" stop-color="rgb(52.296448%, 68.119812%, 100%)" offset="0.34375"/><stop stop-opacity="1" stop-color="rgb(52.505493%, 68.260193%, 100%)" offset="0.359375"/><stop stop-opacity="1" stop-color="rgb(52.716064%, 68.400574%, 100%)" offset="0.375"/><stop stop-opacity="1" stop-color="rgb(52.92511%, 68.54248%, 100%)" offset="0.390625"/><stop stop-opacity="1" stop-color="rgb(53.135681%, 68.682861%, 100%)" offset="0.40625"/><stop stop-opacity="1" stop-color="rgb(53.344727%, 68.823242%, 100%)" offset="0.421875"/><stop stop-opacity="1" stop-color="rgb(53.555298%, 68.965149%, 100%)" offset="0.4375"/><stop stop-opacity="1" stop-color="rgb(53.764343%, 69.10553%, 100%)" offset="0.453125"/><stop stop-opacity="1" stop-color="rgb(53.974915%, 69.245911%, 100%)" offset="0.46875"/><stop stop-opacity="1" stop-color="rgb(54.18396%, 69.387817%, 100%)" offset="0.484375"/><stop stop-opacity="1" stop-color="rgb(54.394531%, 69.528198%, 100%)" offset="0.5"/><stop stop-opacity="1" stop-color="rgb(54.603577%, 69.670105%, 100%)" offset="0.515625"/><stop stop-opacity="1" stop-color="rgb(54.814148%, 69.810486%, 100%)" offset="0.53125"/><stop stop-opacity="1" stop-color="rgb(55.023193%, 69.950867%, 100%)" offset="0.546875"/><stop stop-opacity="1" stop-color="rgb(55.233765%, 70.092773%, 100%)" offset="0.5625"/><stop stop-opacity="1" stop-color="rgb(55.44281%, 70.233154%, 100%)" offset="0.578125"/><stop stop-opacity="1" stop-color="rgb(55.653381%, 70.373535%, 100%)" offset="0.59375"/><stop stop-opacity="1" stop-color="rgb(55.862427%, 70.515442%, 100%)" offset="0.609375"/><stop stop-opacity="1" stop-color="rgb(56.071472%, 70.655823%, 100%)" offset="0.625"/><stop stop-opacity="1" stop-color="rgb(56.282043%, 70.796204%, 100%)" offset="0.640625"/><stop stop-opacity="1" stop-color="rgb(56.491089%, 70.93811%, 100%)" offset="0.65625"/><stop stop-opacity="1" stop-color="rgb(56.70166%, 71.078491%, 100%)" offset="0.671875"/><stop stop-opacity="1" stop-color="rgb(56.910706%, 71.218872%, 100%)" offset="0.6875"/><stop stop-opacity="1" stop-color="rgb(57.121277%, 71.360779%, 100%)" offset="0.703125"/><stop stop-opacity="1" stop-color="rgb(57.330322%, 71.50116%, 100%)" offset="0.71875"/><stop stop-opacity="1" stop-color="rgb(57.540894%, 71.641541%, 100%)" offset="0.734375"/><stop stop-opacity="1" stop-color="rgb(57.749939%, 71.783447%, 100%)" offset="0.75"/><stop stop-opacity="1" stop-color="rgb(57.96051%, 71.923828%, 100%)" offset="0.765625"/><stop stop-opacity="1" stop-color="rgb(58.169556%, 72.064209%, 100%)" offset="0.78125"/><stop stop-opacity="1" stop-color="rgb(58.380127%, 72.206116%, 100%)" offset="0.796875"/><stop stop-opacity="1" stop-color="rgb(58.589172%, 72.346497%, 100%)" offset="0.8125"/><stop stop-opacity="1" stop-color="rgb(58.799744%, 72.486877%, 100%)" offset="0.828125"/><stop stop-opacity="1" stop-color="rgb(59.008789%, 72.628784%, 100%)" offset="0.84375"/><stop stop-opacity="1" stop-color="rgb(59.21936%, 72.769165%, 100%)" offset="0.859375"/><stop stop-opacity="1" stop-color="rgb(59.428406%, 72.909546%, 100%)" offset="0.875"/><stop stop-opacity="1" stop-color="rgb(59.638977%, 73.051453%, 100%)" offset="0.890625"/><stop stop-opacity="1" stop-color="rgb(59.848022%, 73.191833%, 100%)" offset="0.90625"/><stop stop-opacity="1" stop-color="rgb(60.058594%, 73.33374%, 100%)" offset="0.921875"/><stop stop-opacity="1" stop-color="rgb(60.267639%, 73.474121%, 100%)" offset="0.9375"/><stop stop-opacity="1" stop-color="rgb(60.47821%, 73.614502%, 100%)" offset="0.953125"/><stop stop-opacity="1" stop-color="rgb(60.687256%, 73.756409%, 100%)" offset="0.96875"/><stop stop-opacity="1" stop-color="rgb(60.897827%, 73.89679%, 100%)" offset="0.984375"/><stop stop-opacity="1" stop-color="rgb(61.100769%, 74.032593%, 100%)" offset="1"/></linearGradient><clipPath id="c6c6368c24"><path d="M 129 148 L 150 148 L 150 216 L 129 216 Z M 129 148 " clip-rule="nonzero"/></clipPath><clipPath id="cc88462edb"><path d="M 149.667969 215.070312 L 149.667969 149.175781 C 149.667969 148.550781 148.972656 148.167969 148.453125 148.515625 C 137.28125 155.523438 129.855469 167.945312 129.855469 182.140625 C 129.855469 196.332031 137.28125 208.753906 148.453125 215.761719 C 148.972656 216.074219 149.667969 215.691406 149.667969 215.070312 Z M 149.667969 215.070312 " clip-rule="nonzero"/></clipPath><linearGradient x1="42.899985" gradientTransform="matrix(0.346992, 0, 0, 0.346992, 114.968279, 142.477627)" y1="114.286003" x2="99.999985" gradientUnits="userSpaceOnUse" y2="114.286003" id="3d05ba86da"><stop stop-opacity="1" stop-color="rgb(61.209106%, 74.105835%, 100%)" offset="0"/><stop stop-opacity="1" stop-color="rgb(61.309814%, 74.172974%, 100%)" offset="0.015625"/><stop stop-opacity="1" stop-color="rgb(61.51123%, 74.307251%, 100%)" offset="0.03125"/><stop stop-opacity="1" stop-color="rgb(61.712646%, 74.441528%, 100%)" offset="0.046875"/><stop stop-opacity="1" stop-color="rgb(61.914062%, 74.575806%, 100%)" offset="0.0625"/><stop stop-opacity="1" stop-color="rgb(62.115479%, 74.710083%, 100%)" offset="0.078125"/><stop stop-opacity="1" stop-color="rgb(62.316895%, 74.84436%, 100%)" offset="0.09375"/><stop stop-opacity="1" stop-color="rgb(62.518311%, 74.978638%, 100%)" offset="0.109375"/><stop stop-opacity="1" stop-color="rgb(62.719727%, 75.112915%, 100%)" offset="0.125"/><stop stop-opacity="1" stop-color="rgb(62.921143%, 75.247192%, 100%)" offset="0.140625"/><stop stop-opacity="1" stop-color="rgb(63.122559%, 75.38147%, 100%)" offset="0.15625"/><stop stop-opacity="1" stop-color="rgb(63.323975%, 75.515747%, 100%)" offset="0.171875"/><stop stop-opacity="1" stop-color="rgb(63.525391%, 75.650024%, 100%)" offset="0.1875"/><stop stop-opacity="1" stop-color="rgb(63.726807%, 75.784302%, 100%)" offset="0.203125"/><stop stop-opacity="1" stop-color="rgb(63.928223%, 75.918579%, 100%)" offset="0.21875"/><stop stop-opacity="1" stop-color="rgb(64.129639%, 76.052856%, 100%)" offset="0.234375"/><stop stop-opacity="1" stop-color="rgb(64.331055%, 76.187134%, 100%)" offset="0.25"/><stop stop-opacity="1" stop-color="rgb(64.532471%, 76.321411%, 100%)" offset="0.265625"/><stop stop-opacity="1" stop-color="rgb(64.733887%, 76.455688%, 100%)" offset="0.28125"/><stop stop-opacity="1" stop-color="rgb(64.935303%, 76.589966%, 100%)" offset="0.296875"/><stop stop-opacity="1" stop-color="rgb(65.136719%, 76.724243%, 100%)" offset="0.3125"/><stop stop-opacity="1" stop-color="rgb(65.338135%, 76.858521%, 100%)" offset="0.328125"/><stop stop-opacity="1" stop-color="rgb(65.539551%, 76.992798%, 100%)" offset="0.34375"/><stop stop-opacity="1" stop-color="rgb(65.740967%, 77.127075%, 100%)" offset="0.359375"/><stop stop-opacity="1" stop-color="rgb(65.942383%, 77.261353%, 100%)" offset="0.375"/><stop stop-opacity="1" stop-color="rgb(66.143799%, 77.39563%, 100%)" offset="0.390625"/><stop stop-opacity="1" stop-color="rgb(66.345215%, 77.529907%, 100%)" offset="0.40625"/><stop stop-opacity="1" stop-color="rgb(66.546631%, 77.664185%, 100%)" offset="0.421875"/><stop stop-opacity="1" stop-color="rgb(66.748047%, 77.798462%, 100%)" offset="0.4375"/><stop stop-opacity="1" stop-color="rgb(66.949463%, 77.932739%, 100%)" offset="0.453125"/><stop stop-opacity="1" stop-color="rgb(67.150879%, 78.067017%, 100%)" offset="0.46875"/><stop stop-opacity="1" stop-color="rgb(67.352295%, 78.201294%, 100%)" offset="0.484375"/><stop stop-opacity="1" stop-color="rgb(67.553711%, 78.335571%, 100%)" offset="0.5"/><stop stop-opacity="1" stop-color="rgb(67.755127%, 78.469849%, 100%)" offset="0.515625"/><stop stop-opacity="1" stop-color="rgb(67.956543%, 78.604126%, 100%)" offset="0.53125"/><stop stop-opacity="1" stop-color="rgb(68.157959%, 78.738403%, 100%)" offset="0.546875"/><stop stop-opacity="1" stop-color="rgb(68.359375%, 78.872681%, 100%)" offset="0.5625"/><stop stop-opacity="1" stop-color="rgb(68.560791%, 79.006958%, 100%)" offset="0.578125"/><stop stop-opacity="1" stop-color="rgb(68.762207%, 79.141235%, 100%)" offset="0.59375"/><stop stop-opacity="1" stop-color="rgb(68.963623%, 79.275513%, 100%)" offset="0.609375"/><stop stop-opacity="1" stop-color="rgb(69.165039%, 79.40979%, 100%)" offset="0.625"/><stop stop-opacity="1" stop-color="rgb(69.366455%, 79.544067%, 100%)" offset="0.640625"/><stop stop-opacity="1" stop-color="rgb(69.567871%, 79.678345%, 100%)" offset="0.65625"/><stop stop-opacity="1" stop-color="rgb(69.769287%, 79.812622%, 100%)" offset="0.671875"/><stop stop-opacity="1" stop-color="rgb(69.970703%, 79.946899%, 100%)" offset="0.6875"/><stop stop-opacity="1" stop-color="rgb(70.172119%, 80.081177%, 100%)" offset="0.703125"/><stop stop-opacity="1" stop-color="rgb(70.373535%, 80.215454%, 100%)" offset="0.71875"/><stop stop-opacity="1" stop-color="rgb(70.574951%, 80.349731%, 100%)" offset="0.734375"/><stop stop-opacity="1" stop-color="rgb(70.776367%, 80.484009%, 100%)" offset="0.75"/><stop stop-opacity="1" stop-color="rgb(70.977783%, 80.618286%, 100%)" offset="0.765625"/><stop stop-opacity="1" stop-color="rgb(71.179199%, 80.752563%, 100%)" offset="0.78125"/><stop stop-opacity="1" stop-color="rgb(71.380615%, 80.886841%, 100%)" offset="0.796875"/><stop stop-opacity="1" stop-color="rgb(71.582031%, 81.021118%, 100%)" offset="0.8125"/><stop stop-opacity="1" stop-color="rgb(71.783447%, 81.155396%, 100%)" offset="0.828125"/><stop stop-opacity="1" stop-color="rgb(71.984863%, 81.289673%, 100%)" offset="0.84375"/><stop stop-opacity="1" stop-color="rgb(72.186279%, 81.42395%, 100%)" offset="0.859375"/><stop stop-opacity="1" stop-color="rgb(72.387695%, 81.558228%, 100%)" offset="0.875"/><stop stop-opacity="1" stop-color="rgb(72.589111%, 81.692505%, 100%)" offset="0.890625"/><stop stop-opacity="1" stop-color="rgb(72.790527%, 81.826782%, 100%)" offset="0.90625"/><stop stop-opacity="1" stop-color="rgb(72.991943%, 81.96106%, 100%)" offset="0.921875"/><stop stop-opacity="1" stop-color="rgb(73.193359%, 82.095337%, 100%)" offset="0.9375"/><stop stop-opacity="1" stop-color="rgb(73.394775%, 82.229614%, 100%)" offset="0.953125"/><stop stop-opacity="1" stop-color="rgb(73.596191%, 82.363892%, 100%)" offset="0.96875"/><stop stop-opacity="1" stop-color="rgb(73.797607%, 82.498169%, 100%)" offset="0.984375"/><stop stop-opacity="1" stop-color="rgb(73.999023%, 82.632446%, 100%)" offset="1"/></linearGradient><clipPath id="c60d882d1b"><path d="M 139 142.394531 L 219.21875 142.394531 L 219.21875 221.894531 L 139 221.894531 Z M 139 142.394531 " clip-rule="nonzero"/></clipPath><clipPath id="c0cb2f5dfc"><path d="M 219.066406 182.140625 C 219.066406 183.4375 219.003906 184.734375 218.875 186.027344 C 218.746094 187.320312 218.558594 188.601562 218.304688 189.875 C 218.050781 191.148438 217.734375 192.410156 217.359375 193.652344 C 216.980469 194.894531 216.542969 196.117188 216.046875 197.316406 C 215.550781 198.515625 214.996094 199.6875 214.382812 200.835938 C 213.769531 201.980469 213.101562 203.09375 212.382812 204.171875 C 211.660156 205.253906 210.886719 206.296875 210.0625 207.300781 C 209.238281 208.304688 208.367188 209.265625 207.449219 210.183594 C 206.53125 211.101562 205.570312 211.972656 204.566406 212.796875 C 203.5625 213.621094 202.519531 214.394531 201.4375 215.117188 C 200.359375 215.835938 199.246094 216.503906 198.101562 217.117188 C 196.957031 217.730469 195.78125 218.285156 194.582031 218.78125 C 193.382812 219.277344 192.160156 219.714844 190.917969 220.09375 C 189.675781 220.46875 188.417969 220.785156 187.140625 221.039062 C 185.867188 221.292969 184.585938 221.480469 183.292969 221.609375 C 182 221.738281 180.703125 221.800781 179.40625 221.800781 C 178.105469 221.800781 176.808594 221.738281 175.515625 221.609375 C 174.222656 221.480469 172.941406 221.292969 171.667969 221.039062 C 170.394531 220.785156 169.132812 220.46875 167.890625 220.09375 C 166.648438 219.714844 165.425781 219.277344 164.226562 218.78125 C 163.027344 218.285156 161.855469 217.730469 160.707031 217.117188 C 159.5625 216.503906 158.449219 215.835938 157.371094 215.117188 C 156.289062 214.394531 155.246094 213.621094 154.242188 212.796875 C 153.238281 211.972656 152.277344 211.101562 151.359375 210.183594 C 150.441406 209.265625 149.570312 208.304688 148.746094 207.300781 C 147.921875 206.296875 147.148438 205.253906 146.425781 204.171875 C 145.707031 203.09375 145.039062 201.980469 144.425781 200.835938 C 143.8125 199.6875 143.257812 198.515625 142.761719 197.316406 C 142.265625 196.117188 141.828125 194.894531 141.453125 193.652344 C 141.074219 192.410156 140.757812 191.148438 140.503906 189.875 C 140.253906 188.601562 140.0625 187.320312 139.933594 186.027344 C 139.808594 184.734375 139.742188 183.4375 139.742188 182.140625 C 139.742188 180.839844 139.808594 179.542969 139.933594 178.25 C 140.0625 176.957031 140.253906 175.675781 140.503906 174.402344 C 140.757812 173.128906 141.074219 171.867188 141.453125 170.625 C 141.828125 169.382812 142.265625 168.160156 142.761719 166.960938 C 143.257812 165.761719 143.8125 164.589844 144.425781 163.441406 C 145.039062 162.296875 145.707031 161.183594 146.425781 160.105469 C 147.148438 159.023438 147.921875 157.980469 148.746094 156.976562 C 149.570312 155.972656 150.441406 155.011719 151.359375 154.09375 C 152.277344 153.175781 153.238281 152.304688 154.242188 151.480469 C 155.246094 150.65625 156.289062 149.882812 157.371094 149.160156 C 158.449219 148.441406 159.5625 147.773438 160.707031 147.160156 C 161.855469 146.546875 163.027344 145.992188 164.226562 145.496094 C 165.425781 145 166.648438 144.5625 167.890625 144.183594 C 169.132812 143.808594 170.394531 143.492188 171.667969 143.238281 C 172.941406 142.984375 174.222656 142.796875 175.515625 142.667969 C 176.808594 142.542969 178.105469 142.476562 179.40625 142.476562 C 180.703125 142.476562 182 142.542969 183.292969 142.667969 C 184.585938 142.796875 185.867188 142.984375 187.140625 143.238281 C 188.417969 143.492188 189.675781 143.808594 190.917969 144.183594 C 192.160156 144.5625 193.382812 145 194.582031 145.496094 C 195.78125 145.992188 196.957031 146.546875 198.101562 147.160156 C 199.246094 147.773438 200.359375 148.441406 201.4375 149.160156 C 202.519531 149.882812 203.5625 150.65625 204.566406 151.480469 C 205.570312 152.304688 206.53125 153.175781 207.449219 154.09375 C 208.367188 155.011719 209.238281 155.972656 210.0625 156.976562 C 210.886719 157.980469 211.660156 159.023438 212.382812 160.105469 C 213.101562 161.183594 213.769531 162.296875 214.382812 163.441406 C 214.996094 164.589844 215.550781 165.761719 216.046875 166.960938 C 216.542969 168.160156 216.980469 169.382812 217.359375 170.625 C 217.734375 171.867188 218.050781 173.128906 218.304688 174.402344 C 218.558594 175.675781 218.746094 176.957031 218.875 178.25 C 219.003906 179.542969 219.066406 180.839844 219.066406 182.140625 Z M 219.066406 182.140625 " clip-rule="nonzero"/></clipPath><linearGradient x1="71.399978" gradientTransform="matrix(0.346992, 0, 0, 0.346992, 114.968279, 142.477627)" y1="114.286003" x2="300.000022" gradientUnits="userSpaceOnUse" y2="114.286003" id="337b3edc24"><stop stop-opacity="1" stop-color="rgb(74.099731%, 82.699585%, 100%)" offset="0"/><stop stop-opacity="1" stop-color="rgb(74.198914%, 82.765198%, 100%)" offset="0.0078125"/><stop stop-opacity="1" stop-color="rgb(74.398804%, 82.899475%, 100%)" offset="0.015625"/><stop stop-opacity="1" stop-color="rgb(74.601746%, 83.035278%, 100%)" offset="0.0234375"/><stop stop-opacity="1" stop-color="rgb(74.803162%, 83.169556%, 100%)" offset="0.03125"/><stop stop-opacity="1" stop-color="rgb(75.006104%, 83.305359%, 100%)" offset="0.0390625"/><stop stop-opacity="1" stop-color="rgb(75.209045%, 83.439636%, 100%)" offset="0.046875"/><stop stop-opacity="1" stop-color="rgb(75.410461%, 83.575439%, 100%)" offset="0.0546875"/><stop stop-opacity="1" stop-color="rgb(75.613403%, 83.709717%, 100%)" offset="0.0625"/><stop stop-opacity="1" stop-color="rgb(75.816345%, 83.84552%, 100%)" offset="0.0703125"/><stop stop-opacity="1" stop-color="rgb(76.017761%, 83.981323%, 100%)" offset="0.078125"/><stop stop-opacity="1" stop-color="rgb(76.220703%, 84.115601%, 100%)" offset="0.0859375"/><stop stop-opacity="1" stop-color="rgb(76.422119%, 84.251404%, 100%)" offset="0.09375"/><stop stop-opacity="1" stop-color="rgb(76.625061%, 84.385681%, 100%)" offset="0.101563"/><stop stop-opacity="1" stop-color="rgb(76.828003%, 84.521484%, 100%)" offset="0.109375"/><stop stop-opacity="1" stop-color="rgb(77.029419%, 84.657288%, 100%)" offset="0.117188"/><stop stop-opacity="1" stop-color="rgb(77.232361%, 84.791565%, 100%)" offset="0.125"/><stop stop-opacity="1" stop-color="rgb(77.435303%, 84.927368%, 100%)" offset="0.132812"/><stop stop-opacity="1" stop-color="rgb(77.636719%, 85.061646%, 100%)" offset="0.140625"/><stop stop-opacity="1" stop-color="rgb(77.839661%, 85.197449%, 100%)" offset="0.148438"/><stop stop-opacity="1" stop-color="rgb(78.041077%, 85.331726%, 100%)" offset="0.15625"/><stop stop-opacity="1" stop-color="rgb(78.244019%, 85.467529%, 100%)" offset="0.164062"/><stop stop-opacity="1" stop-color="rgb(78.44696%, 85.603333%, 100%)" offset="0.171875"/><stop stop-opacity="1" stop-color="rgb(78.648376%, 85.73761%, 100%)" offset="0.179688"/><stop stop-opacity="1" stop-color="rgb(78.851318%, 85.873413%, 100%)" offset="0.1875"/><stop stop-opacity="1" stop-color="rgb(79.05426%, 86.00769%, 100%)" offset="0.195312"/><stop stop-opacity="1" stop-color="rgb(79.255676%, 86.143494%, 100%)" offset="0.203125"/><stop stop-opacity="1" stop-color="rgb(79.458618%, 86.279297%, 100%)" offset="0.210938"/><stop stop-opacity="1" stop-color="rgb(79.660034%, 86.413574%, 100%)" offset="0.21875"/><stop stop-opacity="1" stop-color="rgb(79.862976%, 86.549377%, 100%)" offset="0.226562"/><stop stop-opacity="1" stop-color="rgb(80.065918%, 86.683655%, 100%)" offset="0.234375"/><stop stop-opacity="1" stop-color="rgb(80.267334%, 86.819458%, 100%)" offset="0.242188"/><stop stop-opacity="1" stop-color="rgb(80.470276%, 86.955261%, 100%)" offset="0.25"/><stop stop-opacity="1" stop-color="rgb(80.673218%, 87.089539%, 100%)" offset="0.257812"/><stop stop-opacity="1" stop-color="rgb(80.874634%, 87.225342%, 100%)" offset="0.265625"/><stop stop-opacity="1" stop-color="rgb(81.077576%, 87.359619%, 100%)" offset="0.273438"/><stop stop-opacity="1" stop-color="rgb(81.278992%, 87.495422%, 100%)" offset="0.28125"/><stop stop-opacity="1" stop-color="rgb(81.481934%, 87.6297%, 100%)" offset="0.289062"/><stop stop-opacity="1" stop-color="rgb(81.684875%, 87.765503%, 100%)" offset="0.296875"/><stop stop-opacity="1" stop-color="rgb(81.886292%, 87.901306%, 100%)" offset="0.304687"/><stop stop-opacity="1" stop-color="rgb(82.089233%, 88.035583%, 100%)" offset="0.3125"/><stop stop-opacity="1" stop-color="rgb(82.292175%, 88.171387%, 100%)" offset="0.320312"/><stop stop-opacity="1" stop-color="rgb(82.493591%, 88.305664%, 100%)" offset="0.328125"/><stop stop-opacity="1" stop-color="rgb(82.696533%, 88.441467%, 100%)" offset="0.335938"/><stop stop-opacity="1" stop-color="rgb(82.897949%, 88.577271%, 100%)" offset="0.34375"/><stop stop-opacity="1" stop-color="rgb(83.100891%, 88.711548%, 100%)" offset="0.351562"/><stop stop-opacity="1" stop-color="rgb(83.303833%, 88.847351%, 100%)" offset="0.359375"/><stop stop-opacity="1" stop-color="rgb(83.505249%, 88.981628%, 100%)" offset="0.367188"/><stop stop-opacity="1" stop-color="rgb(83.708191%, 89.117432%, 100%)" offset="0.375"/><stop stop-opacity="1" stop-color="rgb(83.911133%, 89.253235%, 100%)" offset="0.382812"/><stop stop-opacity="1" stop-color="rgb(84.112549%, 89.387512%, 100%)" offset="0.390625"/><stop stop-opacity="1" stop-color="rgb(84.315491%, 89.523315%, 100%)" offset="0.398438"/><stop stop-opacity="1" stop-color="rgb(84.516907%, 89.657593%, 100%)" offset="0.40625"/><stop stop-opacity="1" stop-color="rgb(84.719849%, 89.793396%, 100%)" offset="0.414062"/><stop stop-opacity="1" stop-color="rgb(84.922791%, 89.927673%, 100%)" offset="0.421875"/><stop stop-opacity="1" stop-color="rgb(85.124207%, 90.063477%, 100%)" offset="0.429688"/><stop stop-opacity="1" stop-color="rgb(85.327148%, 90.19928%, 100%)" offset="0.4375"/><stop stop-opacity="1" stop-color="rgb(85.53009%, 90.333557%, 100%)" offset="0.445312"/><stop stop-opacity="1" stop-color="rgb(85.731506%, 90.46936%, 100%)" offset="0.453125"/><stop stop-opacity="1" stop-color="rgb(85.934448%, 90.603638%, 100%)" offset="0.460938"/><stop stop-opacity="1" stop-color="rgb(86.135864%, 90.739441%, 100%)" offset="0.46875"/><stop stop-opacity="1" stop-color="rgb(86.338806%, 90.875244%, 100%)" offset="0.476562"/><stop stop-opacity="1" stop-color="rgb(86.541748%, 91.009521%, 100%)" offset="0.484375"/><stop stop-opacity="1" stop-color="rgb(86.743164%, 91.145325%, 100%)" offset="0.492188"/><stop stop-opacity="1" stop-color="rgb(86.946106%, 91.279602%, 100%)" offset="0.5"/><stop stop-opacity="1" stop-color="rgb(87.149048%, 91.415405%, 100%)" offset="0.507813"/><stop stop-opacity="1" stop-color="rgb(87.350464%, 91.551208%, 100%)" offset="0.515625"/><stop stop-opacity="1" stop-color="rgb(87.553406%, 91.685486%, 100%)" offset="0.523438"/><stop stop-opacity="1" stop-color="rgb(87.754822%, 91.821289%, 100%)" offset="0.53125"/><stop stop-opacity="1" stop-color="rgb(87.957764%, 91.955566%, 100%)" offset="0.539062"/><stop stop-opacity="1" stop-color="rgb(88.160706%, 92.09137%, 100%)" offset="0.546875"/><stop stop-opacity="1" stop-color="rgb(88.362122%, 92.225647%, 100%)" offset="0.554688"/><stop stop-opacity="1" stop-color="rgb(88.565063%, 92.36145%, 100%)" offset="0.5625"/><stop stop-opacity="1" stop-color="rgb(88.768005%, 92.497253%, 100%)" offset="0.570313"/><stop stop-opacity="1" stop-color="rgb(88.969421%, 92.631531%, 100%)" offset="0.578125"/><stop stop-opacity="1" stop-color="rgb(89.172363%, 92.767334%, 100%)" offset="0.585938"/><stop stop-opacity="1" stop-color="rgb(89.373779%, 92.901611%, 100%)" offset="0.59375"/><stop stop-opacity="1" stop-color="rgb(89.576721%, 93.037415%, 100%)" offset="0.601562"/><stop stop-opacity="1" stop-color="rgb(89.779663%, 93.173218%, 100%)" offset="0.609375"/><stop stop-opacity="1" stop-color="rgb(89.981079%, 93.307495%, 100%)" offset="0.617188"/><stop stop-opacity="1" stop-color="rgb(90.184021%, 93.443298%, 100%)" offset="0.625"/><stop stop-opacity="1" stop-color="rgb(90.386963%, 93.577576%, 100%)" offset="0.632812"/><stop stop-opacity="1" stop-color="rgb(90.588379%, 93.713379%, 100%)" offset="0.640625"/><stop stop-opacity="1" stop-color="rgb(90.791321%, 93.847656%, 100%)" offset="0.648438"/><stop stop-opacity="1" stop-color="rgb(90.992737%, 93.983459%, 100%)" offset="0.65625"/><stop stop-opacity="1" stop-color="rgb(91.195679%, 94.119263%, 100%)" offset="0.664063"/><stop stop-opacity="1" stop-color="rgb(91.398621%, 94.25354%, 100%)" offset="0.671875"/><stop stop-opacity="1" stop-color="rgb(91.600037%, 94.389343%, 100%)" offset="0.679688"/><stop stop-opacity="1" stop-color="rgb(91.802979%, 94.523621%, 100%)" offset="0.6875"/><stop stop-opacity="1" stop-color="rgb(92.00592%, 94.659424%, 100%)" offset="0.695312"/><stop stop-opacity="1" stop-color="rgb(92.207336%, 94.795227%, 100%)" offset="0.703125"/><stop stop-opacity="1" stop-color="rgb(92.410278%, 94.929504%, 100%)" offset="0.710938"/><stop stop-opacity="1" stop-color="rgb(92.611694%, 95.065308%, 100%)" offset="0.71875"/><stop stop-opacity="1" stop-color="rgb(92.814636%, 95.199585%, 100%)" offset="0.726562"/><stop stop-opacity="1" stop-color="rgb(93.017578%, 95.335388%, 100%)" offset="0.734375"/><stop stop-opacity="1" stop-color="rgb(93.218994%, 95.471191%, 100%)" offset="0.742188"/><stop stop-opacity="1" stop-color="rgb(93.421936%, 95.605469%, 100%)" offset="0.75"/><stop stop-opacity="1" stop-color="rgb(93.624878%, 95.741272%, 100%)" offset="0.757813"/><stop stop-opacity="1" stop-color="rgb(93.826294%, 95.875549%, 100%)" offset="0.765625"/><stop stop-opacity="1" stop-color="rgb(94.029236%, 96.011353%, 100%)" offset="0.773438"/><stop stop-opacity="1" stop-color="rgb(94.230652%, 96.14563%, 100%)" offset="0.78125"/><stop stop-opacity="1" stop-color="rgb(94.433594%, 96.281433%, 100%)" offset="0.789062"/><stop stop-opacity="1" stop-color="rgb(94.636536%, 96.417236%, 100%)" offset="0.796875"/><stop stop-opacity="1" stop-color="rgb(94.837952%, 96.551514%, 100%)" offset="0.804688"/><stop stop-opacity="1" stop-color="rgb(95.040894%, 96.687317%, 100%)" offset="0.8125"/><stop stop-opacity="1" stop-color="rgb(95.243835%, 96.821594%, 100%)" offset="0.820313"/><stop stop-opacity="1" stop-color="rgb(95.445251%, 96.957397%, 100%)" offset="0.828125"/><stop stop-opacity="1" stop-color="rgb(95.648193%, 97.093201%, 100%)" offset="0.835938"/><stop stop-opacity="1" stop-color="rgb(95.849609%, 97.227478%, 100%)" offset="0.84375"/><stop stop-opacity="1" stop-color="rgb(96.052551%, 97.363281%, 100%)" offset="0.851563"/><stop stop-opacity="1" stop-color="rgb(96.255493%, 97.497559%, 100%)" offset="0.859375"/><stop stop-opacity="1" stop-color="rgb(96.456909%, 97.633362%, 100%)" offset="0.867188"/><stop stop-opacity="1" stop-color="rgb(96.659851%, 97.769165%, 100%)" offset="0.875"/><stop stop-opacity="1" stop-color="rgb(96.862793%, 97.903442%, 100%)" offset="0.882812"/><stop stop-opacity="1" stop-color="rgb(97.064209%, 98.039246%, 100%)" offset="0.890625"/><stop stop-opacity="1" stop-color="rgb(97.267151%, 98.173523%, 100%)" offset="0.898438"/><stop stop-opacity="1" stop-color="rgb(97.468567%, 98.309326%, 100%)" offset="0.90625"/><stop stop-opacity="1" stop-color="rgb(97.671509%, 98.443604%, 100%)" offset="0.914063"/><stop stop-opacity="1" stop-color="rgb(97.874451%, 98.579407%, 100%)" offset="0.921875"/><stop stop-opacity="1" stop-color="rgb(98.075867%, 98.71521%, 100%)" offset="0.929688"/><stop stop-opacity="1" stop-color="rgb(98.278809%, 98.849487%, 100%)" offset="0.9375"/><stop stop-opacity="1" stop-color="rgb(98.48175%, 98.985291%, 100%)" offset="0.945313"/><stop stop-opacity="1" stop-color="rgb(98.683167%, 99.119568%, 100%)" offset="0.953125"/><stop stop-opacity="1" stop-color="rgb(98.886108%, 99.255371%, 100%)" offset="0.960938"/><stop stop-opacity="1" stop-color="rgb(99.087524%, 99.391174%, 100%)" offset="0.96875"/><stop stop-opacity="1" stop-color="rgb(99.290466%, 99.525452%, 100%)" offset="0.976562"/><stop stop-opacity="1" stop-color="rgb(99.493408%, 99.661255%, 100%)" offset="0.984375"/><stop stop-opacity="1" stop-color="rgb(99.694824%, 99.795532%, 100%)" offset="0.992188"/><stop stop-opacity="1" stop-color="rgb(99.897766%, 99.931335%, 100%)" offset="1"/></linearGradient></defs><g clip-path="url(#3f822a9eb7)"><g clip-path="url(#ce1d6f9e0b)"><path fill="url(#93027a723c)" d="M 114.96875 165.171875 L 114.96875 199.105469 L 119.929688 199.105469 L 119.929688 165.171875 Z M 114.96875 165.171875 " fill-rule="nonzero"/></g></g><g clip-path="url(#4ee76d9ad5)"><g clip-path="url(#59adeccc82)"><path fill="url(#47925fc252)" d="M 122.394531 157.015625 L 122.394531 207.261719 L 132.316406 207.261719 L 132.316406 157.015625 Z M 122.394531 157.015625 " fill-rule="nonzero"/></g></g><g clip-path="url(#c6c6368c24)"><g clip-path="url(#cc88462edb)"><path fill="url(#3d05ba86da)" d="M 129.855469 148.167969 L 129.855469 216.074219 L 149.667969 216.074219 L 149.667969 148.167969 Z M 129.855469 148.167969 " fill-rule="nonzero"/></g></g><g clip-path="url(#c60d882d1b)"><g clip-path="url(#c0cb2f5dfc)"><path fill="url(#337b3edc24)" d="M 139.742188 142.476562 L 139.742188 221.800781 L 219.066406 221.800781 L 219.066406 142.476562 Z M 139.742188 142.476562 " fill-rule="nonzero"/></g></g><g fill="#5990ff" fill-opacity="1"><g transform="translate(160.47956, 191.893874)"><g><path d="M 19.109375 -13.347656 C 22.066406 -13.972656 24.441406 -15.683594 24.441406 -19.496094 C 24.441406 -23 22.222656 -25.878906 16.695312 -25.878906 L 2.257812 -25.878906 L 2.257812 0 L 16.421875 0 C 21.949219 0 24.789062 -2.683594 24.789062 -7.042969 C 24.789062 -11.167969 22.339844 -12.84375 19.109375 -13.347656 Z M 14.945312 -21.40625 C 17.394531 -21.40625 18.253906 -20.316406 18.253906 -18.332031 C 18.253906 -16.460938 17.316406 -15.214844 14.75 -15.214844 L 8.171875 -15.214844 L 8.171875 -21.40625 Z M 15.101562 -4.515625 L 8.171875 -4.515625 L 8.171875 -11.246094 L 14.75 -11.246094 C 17.589844 -11.246094 18.640625 -9.925781 18.640625 -7.863281 C 18.640625 -5.953125 17.746094 -4.515625 15.101562 -4.515625 Z M 15.101562 -4.515625 "/></g></g></g><g fill="#7aa6ff" fill-opacity="1"><g transform="translate(186.823309, 191.893874)"><g><path d="M 22.457031 0 L 28.410156 0 L 19.304688 -25.878906 L 10.273438 -25.878906 L 1.167969 0 L 7.121094 0 L 8.988281 -5.292969 L 20.585938 -5.292969 Z M 10.585938 -9.847656 L 14.789062 -21.792969 L 18.992188 -9.847656 Z M 10.585938 -9.847656 "/></g></g></g><g fill="#9cbdff" fill-opacity="1"><g transform="translate(216.354557, 191.893874)"><g><path d="M 20.003906 -25.878906 L 20.003906 -15.527344 L 8.132812 -15.527344 L 8.132812 -25.878906 L 2.257812 -25.878906 L 2.257812 0 L 8.132812 0 L 8.132812 -10.898438 L 20.003906 -10.898438 L 20.003906 0 L 25.917969 0 L 25.917969 -25.878906 Z M 20.003906 -25.878906 "/></g></g></g><g fill="#5990ff" fill-opacity="1"><g transform="translate(160.47956, 209.577305)"><g><path d="M 4.203125 0.171875 C 3.359375 0.171875 2.640625 0.0234375 2.046875 -0.265625 C 1.453125 -0.554688 0.945312 -0.9375 0.53125 -1.40625 L 1.921875 -2.8125 C 2.578125 -2.0625 3.382812 -1.6875 4.34375 -1.6875 C 4.863281 -1.6875 5.25 -1.789062 5.5 -2 C 5.75 -2.21875 5.875 -2.503906 5.875 -2.859375 C 5.875 -3.128906 5.800781 -3.351562 5.65625 -3.53125 C 5.507812 -3.71875 5.207031 -3.84375 4.75 -3.90625 L 3.796875 -4.03125 C 2.765625 -4.15625 2.007812 -4.460938 1.53125 -4.953125 C 1.050781 -5.441406 0.8125 -6.097656 0.8125 -6.921875 C 0.8125 -7.359375 0.894531 -7.753906 1.0625 -8.109375 C 1.226562 -8.472656 1.46875 -8.785156 1.78125 -9.046875 C 2.09375 -9.304688 2.472656 -9.503906 2.921875 -9.640625 C 3.367188 -9.785156 3.878906 -9.859375 4.453125 -9.859375 C 5.191406 -9.859375 5.835938 -9.742188 6.390625 -9.515625 C 6.941406 -9.285156 7.421875 -8.945312 7.828125 -8.5 L 6.421875 -7.078125 C 6.179688 -7.347656 5.894531 -7.566406 5.5625 -7.734375 C 5.238281 -7.910156 4.828125 -8 4.328125 -8 C 3.859375 -8 3.507812 -7.914062 3.28125 -7.75 C 3.050781 -7.582031 2.9375 -7.351562 2.9375 -7.0625 C 2.9375 -6.726562 3.023438 -6.484375 3.203125 -6.328125 C 3.378906 -6.179688 3.671875 -6.078125 4.078125 -6.015625 L 5.046875 -5.859375 C 6.046875 -5.703125 6.785156 -5.394531 7.265625 -4.9375 C 7.742188 -4.476562 7.984375 -3.828125 7.984375 -2.984375 C 7.984375 -2.523438 7.898438 -2.097656 7.734375 -1.703125 C 7.566406 -1.316406 7.320312 -0.984375 7 -0.703125 C 6.6875 -0.429688 6.289062 -0.21875 5.8125 -0.0625 C 5.34375 0.09375 4.804688 0.171875 4.203125 0.171875 Z M 4.203125 0.171875 "/></g></g></g><g fill="#5990ff" fill-opacity="1"><g transform="translate(169.144854, 209.577305)"><g><path d="M 3.921875 0.171875 C 3.378906 0.171875 2.894531 0.0820312 2.46875 -0.09375 C 2.050781 -0.269531 1.695312 -0.523438 1.40625 -0.859375 C 1.113281 -1.191406 0.890625 -1.59375 0.734375 -2.0625 C 0.578125 -2.539062 0.5 -3.070312 0.5 -3.65625 C 0.5 -4.238281 0.578125 -4.765625 0.734375 -5.234375 C 0.890625 -5.703125 1.113281 -6.101562 1.40625 -6.4375 C 1.695312 -6.769531 2.050781 -7.019531 2.46875 -7.1875 C 2.894531 -7.363281 3.378906 -7.453125 3.921875 -7.453125 C 4.453125 -7.453125 4.925781 -7.363281 5.34375 -7.1875 C 5.769531 -7.019531 6.128906 -6.769531 6.421875 -6.4375 C 6.710938 -6.101562 6.9375 -5.703125 7.09375 -5.234375 C 7.25 -4.765625 7.328125 -4.238281 7.328125 -3.65625 C 7.328125 -3.070312 7.25 -2.539062 7.09375 -2.0625 C 6.9375 -1.59375 6.710938 -1.191406 6.421875 -0.859375 C 6.128906 -0.523438 5.769531 -0.269531 5.34375 -0.09375 C 4.925781 0.0820312 4.453125 0.171875 3.921875 0.171875 Z M 3.921875 -1.453125 C 4.328125 -1.453125 4.640625 -1.578125 4.859375 -1.828125 C 5.078125 -2.078125 5.1875 -2.4375 5.1875 -2.90625 L 5.1875 -4.390625 C 5.1875 -4.847656 5.078125 -5.203125 4.859375 -5.453125 C 4.640625 -5.703125 4.328125 -5.828125 3.921875 -5.828125 C 3.515625 -5.828125 3.195312 -5.703125 2.96875 -5.453125 C 2.75 -5.203125 2.640625 -4.847656 2.640625 -4.390625 L 2.640625 -2.90625 C 2.640625 -2.4375 2.75 -2.078125 2.96875 -1.828125 C 3.195312 -1.578125 3.515625 -1.453125 3.921875 -1.453125 Z M 3.921875 -1.453125 "/></g></g></g><g fill="#5990ff" fill-opacity="1"><g transform="translate(176.97695, 209.577305)"><g><path d="M 1.3125 -5.6875 L 0.296875 -5.6875 L 0.296875 -7.296875 L 1.3125 -7.296875 L 1.3125 -8.15625 C 1.3125 -8.851562 1.5 -9.378906 1.875 -9.734375 C 2.25 -10.097656 2.789062 -10.28125 3.5 -10.28125 L 4.828125 -10.28125 L 4.828125 -8.6875 L 3.375 -8.6875 L 3.375 -7.296875 L 4.828125 -7.296875 L 4.828125 -5.6875 L 3.375 -5.6875 L 3.375 0 L 1.3125 0 Z M 1.3125 -5.6875 "/></g></g></g><g fill="#5990ff" fill-opacity="1"><g transform="translate(181.990046, 209.577305)"><g><path d="M 3.515625 0 C 2.796875 0 2.253906 -0.175781 1.890625 -0.53125 C 1.523438 -0.894531 1.34375 -1.425781 1.34375 -2.125 L 1.34375 -5.6875 L 0.3125 -5.6875 L 0.3125 -7.296875 L 0.828125 -7.296875 C 1.109375 -7.296875 1.300781 -7.363281 1.40625 -7.5 C 1.507812 -7.632812 1.5625 -7.828125 1.5625 -8.078125 L 1.5625 -9.265625 L 3.40625 -9.265625 L 3.40625 -7.296875 L 4.84375 -7.296875 L 4.84375 -5.6875 L 3.40625 -5.6875 L 3.40625 -1.59375 L 4.734375 -1.59375 L 4.734375 0 Z M 3.515625 0 "/></g></g></g><g fill="#7aa6ff" fill-opacity="1"><g transform="translate(187.315496, 209.577305)"><g><path d="M 0.265625 -7.296875 L 2.25 -7.296875 L 2.953125 -4.34375 L 3.453125 -2.125 L 3.515625 -2.125 L 4.09375 -4.34375 L 4.9375 -7.296875 L 6.8125 -7.296875 L 7.65625 -4.34375 L 8.25 -2.125 L 8.3125 -2.125 L 8.8125 -4.34375 L 9.515625 -7.296875 L 11.421875 -7.296875 L 9.40625 0 L 7.25 0 L 6.359375 -3.078125 L 5.84375 -4.96875 L 5.8125 -4.96875 L 5.3125 -3.078125 L 4.421875 0 L 2.3125 0 Z M 0.265625 -7.296875 "/></g></g></g><g fill="#7aa6ff" fill-opacity="1"><g transform="translate(198.994202, 209.577305)"><g><path d="M 6.34375 0 C 5.976562 0 5.671875 -0.113281 5.421875 -0.34375 C 5.179688 -0.570312 5.023438 -0.882812 4.953125 -1.28125 L 4.875 -1.28125 C 4.757812 -0.800781 4.507812 -0.4375 4.125 -0.1875 C 3.75 0.0507812 3.285156 0.171875 2.734375 0.171875 C 2.003906 0.171875 1.441406 -0.0195312 1.046875 -0.40625 C 0.660156 -0.800781 0.46875 -1.316406 0.46875 -1.953125 C 0.46875 -2.722656 0.75 -3.296875 1.3125 -3.671875 C 1.875 -4.046875 2.632812 -4.234375 3.59375 -4.234375 L 4.75 -4.234375 L 4.75 -4.6875 C 4.75 -5.039062 4.65625 -5.320312 4.46875 -5.53125 C 4.28125 -5.738281 3.972656 -5.84375 3.546875 -5.84375 C 3.140625 -5.84375 2.8125 -5.753906 2.5625 -5.578125 C 2.320312 -5.398438 2.125 -5.203125 1.96875 -4.984375 L 0.75 -6.0625 C 1.039062 -6.5 1.410156 -6.835938 1.859375 -7.078125 C 2.316406 -7.328125 2.925781 -7.453125 3.6875 -7.453125 C 4.726562 -7.453125 5.507812 -7.222656 6.03125 -6.765625 C 6.550781 -6.316406 6.8125 -5.660156 6.8125 -4.796875 L 6.8125 -1.59375 L 7.484375 -1.59375 L 7.484375 0 Z M 3.5 -1.265625 C 3.84375 -1.265625 4.132812 -1.335938 4.375 -1.484375 C 4.625 -1.628906 4.75 -1.867188 4.75 -2.203125 L 4.75 -3.0625 L 3.75 -3.0625 C 2.945312 -3.0625 2.546875 -2.789062 2.546875 -2.25 L 2.546875 -2.046875 C 2.546875 -1.773438 2.628906 -1.578125 2.796875 -1.453125 C 2.960938 -1.328125 3.195312 -1.265625 3.5 -1.265625 Z M 3.5 -1.265625 "/></g></g></g><g fill="#7aa6ff" fill-opacity="1"><g transform="translate(206.895729, 209.577305)"><g><path d="M 0.953125 0 L 0.953125 -7.296875 L 3.015625 -7.296875 L 3.015625 -5.703125 L 3.078125 -5.703125 C 3.117188 -5.910156 3.1875 -6.109375 3.28125 -6.296875 C 3.375 -6.484375 3.492188 -6.648438 3.640625 -6.796875 C 3.796875 -6.953125 3.976562 -7.070312 4.1875 -7.15625 C 4.40625 -7.25 4.65625 -7.296875 4.9375 -7.296875 L 5.3125 -7.296875 L 5.3125 -5.375 L 4.796875 -5.375 C 4.191406 -5.375 3.742188 -5.296875 3.453125 -5.140625 C 3.160156 -4.984375 3.015625 -4.691406 3.015625 -4.265625 L 3.015625 0 Z M 0.953125 0 "/></g></g></g><g fill="#7aa6ff" fill-opacity="1"><g transform="translate(212.505955, 209.577305)"><g><path d="M 4 0.171875 C 3.445312 0.171875 2.953125 0.0820312 2.515625 -0.09375 C 2.078125 -0.28125 1.707031 -0.535156 1.40625 -0.859375 C 1.101562 -1.191406 0.875 -1.59375 0.71875 -2.0625 C 0.570312 -2.539062 0.5 -3.070312 0.5 -3.65625 C 0.5 -4.226562 0.570312 -4.75 0.71875 -5.21875 C 0.863281 -5.6875 1.082031 -6.085938 1.375 -6.421875 C 1.664062 -6.753906 2.023438 -7.007812 2.453125 -7.1875 C 2.878906 -7.363281 3.367188 -7.453125 3.921875 -7.453125 C 4.515625 -7.453125 5.023438 -7.347656 5.453125 -7.140625 C 5.890625 -6.941406 6.242188 -6.671875 6.515625 -6.328125 C 6.796875 -5.984375 7 -5.585938 7.125 -5.140625 C 7.25 -4.691406 7.3125 -4.222656 7.3125 -3.734375 L 7.3125 -3.125 L 2.625 -3.125 L 2.625 -3.015625 C 2.625 -2.535156 2.753906 -2.148438 3.015625 -1.859375 C 3.273438 -1.578125 3.679688 -1.4375 4.234375 -1.4375 C 4.660156 -1.4375 5.007812 -1.519531 5.28125 -1.6875 C 5.550781 -1.863281 5.800781 -2.070312 6.03125 -2.3125 L 7.0625 -1.046875 C 6.738281 -0.660156 6.3125 -0.359375 5.78125 -0.140625 C 5.257812 0.0664062 4.664062 0.171875 4 0.171875 Z M 3.953125 -5.9375 C 3.535156 -5.9375 3.207031 -5.800781 2.96875 -5.53125 C 2.738281 -5.257812 2.625 -4.894531 2.625 -4.4375 L 2.625 -4.328125 L 5.1875 -4.328125 L 5.1875 -4.453125 C 5.1875 -4.898438 5.082031 -5.257812 4.875 -5.53125 C 4.675781 -5.800781 4.367188 -5.9375 3.953125 -5.9375 Z M 3.953125 -5.9375 "/></g></g></g></svg>